# xmcd
#
# Track frame offsets: 
#        150
#        16978
#        34486
#        50611
#        60753
#        76838
#        93803
#        117286
#        129433
#        143341
#        157986
#        175668
#        185656
#
# Disc length: 2688 seconds
#
# Revision: 3
# Processed by: cddbd v1.5.2PL0 Copyright (c) Steve Scherf et al.
# Submitted via: ExactAudioCopy v0.95a5
#
DISCID=970a7e0d
DTITLE=Julienne Taylor - The Heart Within
DYEAR=2011
DGENRE=Pop
TTITLE0=I Knew I Loved You
TTITLE1=Guitar Man
TTITLE2=You Are Not Alone
TTITLE3=I Was Born to Love You
TTITLE4=Forever Our Love
TTITLE5=If You Leave
TTITLE6=Forbidden Colours
TTITLE7=We Go Round
TTITLE8=Please, Please, Please
TTITLE9=Hard to Say I'm Sorry
TTITLE10=Can't Let Go
TTITLE11=You Are My Love
TTITLE12=Baby Can I Hold You?
EXTD=
EXTT0=
EXTT1=
EXTT2=
EXTT3=
EXTT4=
EXTT5=
EXTT6=
EXTT7=
EXTT8=
EXTT9=
EXTT10=
EXTT11=
EXTT12=
PLAYORDER=
